# xmcd
# 
# Track frame offsets:
#     150
#     11810
#     35982
#     60592
#     86877
#     109945
#     143846
#     157166
#     176646
#     208339
#     227117
#     247550
#     304369
# 
# Disc length: 4436
# 
# Revision: 9
# Processed by: cddbd v1.5.2PL0 Copyright (c) Steve Scherf et al.
# Submitted via: fre:ac v1.0.27
# 
DISCID=bd11520d
DTITLE=Nightwish - Imaginaerum [CD 2 Instrumental)
DYEAR=2011
DGENRE=Symphonic Power Metal;
TTITLE0=Taikatalvi (Instrumental)
TTITLE1=Storytime (Instrumental)
TTITLE2=Ghost River (Instrumental)
TTITLE3=Slow, Love, Slow (Instrumental)
TTITLE4=I Want My Tears Back (Instrumental)
TTITLE5=Scaretale (Instrumental)
TTITLE6=Arabesque (Instrumental)
TTITLE7=Turn Loose The Mermaids (Instrumental)
TTITLE8=Rest Calm (Instrumental)
TTITLE9=The Crow, The Owl And The Dove (Instrumental)
TTITLE10=Last Ride Of The Day (Instrumental)
TTITLE11=Song Of Myself (1: From A Dusty Bookshelf) (2: All That Great Heart Lying Still) (3: Piano Black) (4: Love) (Instrumental)
TTITLE12=Imaginaerum (Instrumental)
EXTD=YEAR: 2011
EXTT0=
EXTT1=
EXTT2=
EXTT3=
EXTT4=
EXTT5=
EXTT6=
EXTT7=
EXTT8=
EXTT9=
EXTT10=
EXTT11=
EXTT12=
PLAYORDER=
